PathFileType	4	(X/Y/Z)	Patient4_TMGait_0pt7_01_right_02.trc.trc
DataRate	CameraRate	NumFrames	NumMarkers	Units	OrigDataRate	OrigDataStartFrame	OrigNumFrames
85.889570552147	85.889570552147	7	33	mm	85.889570552147	18	       141
Frame#	Time	Sacral			L.Shoulder			Chest			R.Shoulder			Neck			R.ASIS			L.ASIS			R.Thigh.Superior			R.Thigh.Lateral			R.Thigh.Inferior			R.Patella			L.Thigh.Superior			L.Thigh.Lateral			L.Thigh.Inferior			L.Patella			L.Shank.Superior			L.Shank.Lateral			L.Shank.Inferior			R.Shank.Superior			R.Shank.Lateral			R.Shank.Inferior			R.Heel			R.Midfoot.Superior			R.Midfoot.Lateral			R.Toe			L.Heel			L.Midfoot.Lateral			L.Midfoot.Superior			L.Toe			L.Elbow			L.Wrist			R.Elbow			R.Wrist			
		X1	Y1	Z1	X2	Y2	Z2	X3	Y3	Z3	X4	Y4	Z4	X5	Y5	Z5	X6	Y6	Z6	X7	Y7	Z7	X8	Y8	Z8	X9	Y9	Z9	X10	Y10	Z10	X11	Y11	Z11	X12	Y12	Z12	X13	Y13	Z13	X14	Y14	Z14	X15	Y15	Z15	X16	Y16	Z16	X17	Y17	Z17	X18	Y18	Z18	X19	Y19	Z19	X20	Y20	Z20	X21	Y21	Z21	X22	Y22	Z22	X23	Y23	Z23	X24	Y24	Z24	X25	Y25	Z25	X26	Y26	Z26	X27	Y27	Z27	X28	Y28	Z28	X29	Y29	Z29	X30	Y30	Z30	X31	Y31	Z31	X32	Y32	Z32	X33	Y33	Z33	

18	1.907928571429	735.178773476394	1003.107147418499	498.389083151850	932.012623724049	1418.577748311988	310.108583262251	1019.601505097763	1356.794286068329	484.692657895237	922.211340450239	1444.501601247283	645.184726854333	918.344706803830	1488.670413697681	462.555380267508	954.858137345105	935.763888197151	630.186919910651	963.593558258174	961.380659320040	355.436337983845	1033.906496142235	772.462825326016	607.963257906078	994.479294284872	647.243258653988	681.448190119512	1090.422496337395	615.412316710622	607.477803367860	1127.297077991791	527.780108338657	628.467694297125	960.460718885351	736.132494170680	379.131889244233	843.014939577384	640.860442042744	318.644013196784	906.264937013904	548.088056241301	379.427766194820	892.308229146823	482.638236204341	388.275293522990	863.215912371344	416.635598937868	382.181354653443	764.890945055018	305.337735185795	338.267392980903	817.952630165851	193.734844985107	409.960066678685	1103.891512689077	438.382942612419	634.173236930719	1037.694334178773	328.659835022155	691.453059030737	1103.017853262684	237.968256898549	643.596329464067	998.641023171432	58.946697087166	604.200167141088	1161.490010793609	122.224176303035	660.486804264152	1074.876904038973	51.735589733579	685.566571937964	1279.028329877995	76.737902990292	699.161452492698	690.469482212236	37.591833334715	462.645483774730	761.674218010930	34.702624407231	379.379750509455	845.207989465524	96.259650268756	402.418481561754	972.694725643881	46.552005686863	371.681390318983	948.111341578026	1071.857059247739	195.218376856409	1190.276608235031	1127.924754262990	189.681921827074	761.998289186050	1148.961750736096	773.009829864232	723.940727301869	894.160438922155	813.257007718502	
19	1.919571428571	735.492117482744	1001.833591210767	500.355123978966	931.969769568596	1417.559459240862	311.966713630788	1019.704469691606	1355.424108609003	486.335568807495	922.645061495857	1443.178396237519	646.922012236687	918.567754529754	1487.297449483271	464.392786156554	955.370826025824	934.264999991253	631.499883831306	962.898005650279	960.274570711305	356.651216633083	1032.330683594925	768.674616564107	608.750752594918	991.050544962962	643.681205685311	681.579008501549	1086.068327718472	610.986777405213	606.706980574144	1122.350457417885	524.944512552248	626.593699661330	958.473959703418	734.759130048632	379.989231460711	840.155510243829	640.376104542348	319.558987990261	902.614952164865	547.070078770191	380.288964434947	888.125513052644	481.477241857125	389.038204310198	858.401610855775	415.676740873447	382.829290941102	758.929057526964	305.415655006286	338.793609094715	810.837851736955	193.192555197847	410.281583067004	1101.533040584425	435.783182229670	633.120548207405	1038.978327411438	324.004868080666	690.817069994704	1107.161458310647	235.336465642071	642.821215302159	1008.257272719059	53.080850588608	604.381648075260	1169.896248313922	121.147886685887	659.550683240953	1085.254936383363	48.393184531202	685.505719243167	1288.945888315429	78.840570673464	697.560419492189	682.250248561760	37.539152167954	462.654961239775	753.432681028180	34.698846333376	379.381059138559	837.000755900207	96.151594526020	402.531234253280	964.454313646609	46.426218912961	371.672073987492	948.747183148045	1071.643399178905	195.890509922542	1186.308403067173	1143.297491273461	191.475903238395	758.867788329260	1150.307401352828	774.810604273577	717.690676103047	896.146189631029	815.073963379462	
20	1.931214285714	735.934539113530	1000.368340648865	502.540575130279	931.866702927213	1416.449265436333	314.014144925353	1019.864950789716	1353.961388973060	488.106042509592	923.177676985871	1441.725377954741	648.844307493210	918.825704215389	1485.840238372823	466.433944091122	956.019884617220	932.686914742442	632.921837103033	962.053284779658	959.039848346215	357.893697051734	1031.198565012982	765.016047231321	609.659749728418	988.111155856591	640.266332289189	681.741262678202	1082.240012208885	606.846101019357	606.017075381003	1117.752711586998	522.058853607931	624.844644765088	956.892794360388	733.337976724838	380.965811717734	837.762963084425	639.755050496317	320.634237024483	899.499035031094	545.944070181393	381.302613745618	884.480756786490	480.128077925086	390.002363825183	854.057593431058	414.501296580311	383.657210938857	753.344085194569	305.424195075277	339.430978023336	803.889680702998	192.519725052672	410.697366089449	1098.999134211616	433.019829993438	632.093812441756	1039.206616532204	319.697637237180	689.869676870942	1109.581942758019	232.715724774083	641.718050863772	1014.825587680834	48.422898642407	603.958709528009	1175.567716130128	119.784430446381	658.028848872676	1092.401434094772	45.631201011658	684.869428966178	1295.734160356042	79.772737973746	695.498784892907	674.029809339328	37.436528774821	462.668010048066	745.197216940422	34.674091761135	379.393745253919	828.801088994156	96.021867434555	402.687374436773	956.239505451750	46.260030561422	371.660243729231	949.307658331721	1071.350890330722	196.602271593886	1181.705702293510	1157.177750090302	193.302145102080	756.441978698589	1151.138416782268	776.774135876843	712.828002650414	897.425345749472	816.879642157515	
21	1.942857142857	736.480206928562	998.744666123442	504.928199357294	931.677914527501	1415.260696801004	316.240014795656	1020.072906120254	1352.438850441028	489.993302129672	923.796270791654	1440.169357244074	650.950329696970	919.111636226982	1484.329000017089	468.667934516487	956.789952930357	931.054511345336	634.452884711778	961.130124308675	957.702520329236	359.197015934734	1030.582289648336	761.607120689053	610.666224776335	985.759517297008	637.082355409707	681.899748590252	1079.100298561219	603.130355006020	605.442965620971	1113.669786292503	519.211430133424	623.261625035211	955.745084589734	731.878971269524	382.073263824071	835.869764818445	638.988210339933	321.892059823764	896.967748118534	544.701616612532	382.482645955907	881.436748904884	478.570264885444	391.178948601693	850.219957776189	413.105761398309	384.680645859287	748.161127938015	305.373683532717	340.198537638640	797.118445908065	191.720608060962	411.216201981551	1096.431917275215	430.157472510151	631.124223480478	1038.488572506978	315.784904189119	688.709913774297	1110.348242608642	230.074268077980	640.384946606462	1018.270925454472	44.934538276174	603.060184063885	1178.507240688374	118.004441317154	656.069121299939	1096.246854929961	43.367504219896	683.789060201585	1299.398862311323	79.343813580349	693.166868054700	665.807833729378	37.292904254707	462.683517561602	736.972559900353	34.626348466126	379.423581590832	820.620542738507	95.871855030863	402.888416811024	948.060732055098	46.036618437551	371.646599779782	949.723530254980	1070.971216172728	197.375593023006	1176.668586772765	1169.469356179293	195.124337949952	754.808906601843	1151.378512043613	778.905130109042	709.362552495070	897.936510917095	818.690634205092	
22	1.954500000000	737.095404622602	997.013873665274	507.491779430649	931.394179465005	1414.022106315795	318.631112058223	1020.321495648932	1350.897972960728	491.988807720013	924.488285710990	1438.546453076162	653.235530914162	919.427122002798	1482.803979027402	471.081290737638	957.663600315595	929.410993963110	636.091562178929	960.222977664886	956.302674195581	360.600229772427	1030.527602178366	758.559866537793	611.747975630392	984.057645440605	634.210236630238	682.035108664148	1076.769623946407	599.951297115618	605.024940620374	1110.234600274288	516.487663017541	621.877181156221	955.035494061827	730.401709315357	383.322577884453	834.490541052749	638.074274756174	323.350497361783	895.061751863129	543.343534495843	383.835309984713	879.053165085625	476.792817046782	392.559085455306	846.914740283546	411.501523524035	385.901421305499	743.390882006742	305.289722134500	341.115228001267	790.532030145504	190.814778021448	411.839290221699	1093.971373386799	427.279950223674	630.240612570686	1037.008890137229	312.319788406218	687.477153244389	1109.620440954237	227.418999250861	638.937727599348	1018.705035706252	42.527202513289	601.863669516764	1178.864306504882	115.775455110912	653.860872940141	1096.924795053234	41.530588652069	682.437269894149	1300.115201263608	77.549476678887	690.756271944121	657.585827879385	37.136749821594	462.702023622441	728.765100914212	34.561341267880	379.476701361520	812.476913412774	95.705931080130	403.130455395679	939.928744257868	45.739637423732	371.630934354000	949.911836856845	1070.505356922537	198.242543402881	1171.385058808460	1180.112412152358	196.912168740209	754.036277314003	1150.976908493597	781.205950249944	707.312700576023	897.647442994369	820.519860737836	
23	1.966142857143	737.741320206135	995.242544854767	510.198331730886	931.024676083340	1412.776149358407	321.171711329930	1020.607115685592	1349.386262828372	494.086177946533	925.242730800221	1436.902014821410	655.691138933787	919.782210803654	1481.313922648273	473.657397351970	958.621257402028	927.817592545236	637.834946344752	959.421712180734	954.889420983419	362.137928549993	1031.044796688183	755.971514325766	612.887079258706	983.030916487884	631.727568190619	682.153430789592	1075.309182045744	597.382981766315	604.804444695356	1107.532659820138	513.968230311543	620.719879689832	954.747176698508	728.936911864777	384.722575526205	833.625373627110	637.021209467369	325.020374631882	893.815343426564	541.882301556023	385.357286104625	877.389092799581	474.797298436740	394.110714856421	844.162108962132	409.715154078371	387.304767499623	739.034333921396	305.215122087495	342.196598275510	784.140038617772	189.839427196444	412.558045377976	1091.739861546268	424.485619780607	629.471680600354	1035.004173430730	309.357189227990	686.335374154914	1107.631479987229	224.795654912749	637.497050923537	1016.417067082946	41.064338886243	600.564414606618	1176.915517731089	113.166907392844	651.613602940460	1094.755956492188	40.061628608779	681.001025265673	1298.206418536607	74.577951668571	688.446536623983	649.369134617924	37.023425947220	462.725417641487	720.583306933832	34.496904702081	379.558509393501	804.395988171163	95.532148952710	403.402508200782	931.853588063545	45.355230248143	371.611848555145	949.781265606843	1069.964978634633	199.243941805841	1166.024866543277	1189.079265380144	198.641872759058	754.169218378410	1149.914891146635	783.675206913291	706.703362709594	896.556304011614	822.377179131650	
24	1.977785714286	738.378103418075	993.508187133411	513.011595377737	930.595566398133	1411.577294320905	323.843360304657	1020.928612142696	1347.954244563374	496.280325978414	926.050723317746	1435.289873092282	658.303193040462	920.193237551712	1479.913628115674	476.376274682562	959.641200615308	926.349762432763	639.679691470283	958.788023741279	953.516445240584	363.833461610904	1032.101259101714	753.916670135903	614.071647306125	982.667561240226	629.703885010429	682.289995308404	1074.707213776231	595.454647605624	604.818423483862	1105.588461691648	511.724884146964	619.819168927291	954.846689164313	727.526499843430	386.278580471838	833.266181523633	635.846788152527	326.902663089906	893.262079936338	540.343319861892	387.034365925270	876.506391129963	472.600065402981	395.778136022175	841.983171082174	407.787139144560	388.857852813252	735.091196714318	305.209913925346	343.450544634945	777.959455747878	188.850231547876	413.352618910004	1089.823703270671	421.876772445220	628.847087289579	1032.724820628237	306.943314251759	685.449411679216	1104.655169645853	222.278717206972	636.173590500565	1011.836585149602	40.371308502779	599.341964950693	1173.028365534810	110.333401719014	649.528339695699	1090.203996155796	38.913049416485	679.652553611203	1294.102435417142	70.774457312676	686.391026276864	641.169467339743	37.041665426622	462.756014916125	712.438091539493	34.467611079985	379.672367452994	796.412989110758	95.363000670261	403.685415581133	923.842808120542	44.873851851431	371.586884459220	949.238882349857	1069.372833503995	200.426995854797	1160.734849976674	1196.370019934194	200.296559088818	755.229164137155	1148.210365259162	786.306681495447	707.562850426944	894.693571151063	824.269824181125	
